<?xml version="1.0" encoding="utf-8"?>
<!-- Generator: Adobe Illustrator 24.0.1, SVG Export Plug-In . SVG Version: 6.00 Build 0)  -->
<svg version="1.1" xmlns="http://www.w3.org/2000/svg" xmlns:xlink="http://www.w3.org/1999/xlink" x="0px" y="0px"
	 viewBox="0 0 1000 1000" enable-background="new 0 0 1000 1000" xml:space="preserve">
<g id="レイヤー_5" display="none">
	<g display="inline">
		<path fill="#4B4B4B" d="M442.4275208,206.112442c0-10.1875305-8.2324219-18.4277802-18.4121399-18.4277802
			c-10.1797485,0-18.421936,8.242218-18.421936,18.4277802c0,10.1699371,8.2421875,18.4121399,18.421936,18.4121399
			C434.1950684,224.5245667,442.4275208,216.2843323,442.4275208,206.112442z"/>
		<path fill="#4B4B4B" d="M436.8122559,950.3834229c-11.4433594-8.1934204-42.7793579-13.5723267-42.7793579-43.0567627h-55.0313721
			c0,29.484436-31.4375305,34.7676392-42.7793579,43.0567627c-15.1465454,11.0429688-15.1465454,34.4532471,4.1445312,39.3555298
			c19.2988586,4.96875,23.4179993-13.5391235,33.0820923-17.2109985
			c9.6425781-3.7011719,4.1210938,28.2988892,33.0742798,28.2988892c28.9473267,0,23.4434204-32.000061,33.0762329-28.2988892
			c9.6406555,3.6699219,13.7851868,22.1777954,33.0684509,17.2109985
			C451.9978333,984.8366699,450.6052551,960.2232666,436.8122559,950.3834229z"/>
		<path fill="#4B4B4B" d="M785.6469116,560.8318481c-63.1915283-128.4572754-61.4219971-111.8811035-74.1466064-171.8323669
			c-12.8828735-60.8048096-8.140686-100.4767456-8.140686-168.2405548c0-68.681778-23.3867188-121.2307129-60.9766846-158.9573517
			C604.6485596,24.205822,552.703125,0.8268694,495.1248474,0.8268694c-57.5704041,0-109.5158081,23.378952-147.2580872,60.9766808
			c-37.5918579,37.7266388-60.9707947,90.2755661-60.9707947,158.9573364c0,67.7637939,4.7382812,107.4357605-8.1367493,168.2405701
			c-12.726593,59.9512939-10.9550781,43.3750916-74.1485901,171.8323364
			c-63.1915436,128.3010254-80.8048553,219.3324585-46.3223419,248.3442383
			c25.5996552,21.4630127,63.0508881-41.1445923,86.8732147-89.2462158c0,46.031311,52.9825134,72.9532471,52.9825134,108.3380737
			c0,37.5840454,30.4883423,68.0645752,68.0802002,68.0645752c17.312561,0,33.0039673-6.5019531,44.9942627-17.0039062
			c35.3613892,19.0761719,27.2227173,19.5195312,83.9063721,19.5195312c56.6837463,0,48.5469666-0.4433594,83.9142151-19.5195312
			c11.9902954,10.5020142,27.6738892,17.0039062,44.9863892,17.0039062c37.5919189,0,68.0802002-30.4805298,68.0802002-68.0645752
			c0-35.3848267,52.9825439-62.3087158,52.9825439-108.3380737c23.8301392,48.1016235,61.2716064,110.7092285,86.87323,89.2462158
			C866.4459229,780.1662598,848.8404541,689.1328735,785.6469116,560.8318481z M678.3537598,666.0703735
			c-8.4472656,52.5313721-64.5391846,141.0159302-183.2288818,141.0159302s-174.7815552-88.4845581-183.2190857-141.0159302
			c-25.9043579-162.3558044,42.7715759-181.1488037,45.1445923-361.252655
			c0.4414062-28.125061-14.9570618-61.7227783-16.2851562-81.8595428
			c-3.5429688-50.1563568,24.5742493-86.4122772,65.4161377-93.5314331
			c41.734436-7.0859528,69.7012939,14.5039368,81.9845276,42.4727325c2.0800781,4.746109,4.4453125,7.1015778,6.9609375,7.1015778
			s4.8886719-2.3574219,6.9609375-7.1015778c12.2832031-27.9668427,40.2481079-49.5586853,81.9923706-42.4727325
			c40.843811,7.1191406,68.9591064,43.3750763,65.4083862,93.5314331
			c-1.3300781,20.1367493-16.718811,53.7344513-16.2773438,81.8595428
			C635.5743408,484.9215698,704.2483521,503.7145691,678.3537598,666.0703735z"/>
		<path fill="#4B4B4B" d="M531.9823608,249.7550812c-6.0664062-2.5136719-14.2051392-6.3730621-21.6074524-11.0879059
			c-6.2168274-4.0195465-9.4765625-5.3476715-15.2480774-5.3476715c-5.7734375,0-9.03125,1.328125-15.2481079,5.3476715
			c-7.3964844,4.7148438-15.5332336,8.574234-21.5996399,11.0879059
			c-12.7266235,5.3300934-29.6016541,2.9590149-31.2246704,15.3906403
			c-2.2226562,15.8183899,32.2617798,5.4726868,50.1661072,31.9532166
			c9.4667969,14.078125,17.9062805,12.2910156,17.9062805,12.2910156s8.4394531,1.7871094,17.9062805-12.2910156
			c17.906311-26.4805298,52.3966064-16.1348267,50.1739502-31.9532166
			C561.5761719,252.7140961,544.7070312,255.0851746,531.9823608,249.7550812z"/>
		<path fill="#4B4B4B" d="M566.2422485,187.6846466c-10.187561,0-18.4121704,8.242218-18.4121704,18.4277802
			c0,10.1699371,8.2246094,18.4121399,18.4121704,18.4121399c10.171875,0,18.4199219-8.2422028,18.4199219-18.4121399
			C584.6640625,195.9268646,576.4140625,187.6846466,566.2422485,187.6846466z"/>
		<path fill="#4B4B4B" d="M694.0296021,950.3834229c-11.3340454-8.2890625-42.7794189-13.5723267-42.7794189-43.0567627h-55.0235596
			c0,29.484436-31.3359985,34.8633423-42.7794189,43.0567627c-13.8007812,9.8378906-15.1855469,34.4532471,4.1348267,39.3555298
			c19.2910767,4.96875,23.4277344-13.5391235,33.0762329-17.2109985
			c9.6347656-3.7011719,4.1289062,28.2988892,33.0762329,28.2988892c28.9472656,0,23.4257812-32.000061,33.0762329-28.2988892
			c9.65625,3.6699219,13.7773438,22.1777954,33.0840454,17.2109985
			C709.1760254,984.8366699,709.1760254,961.4263916,694.0296021,950.3834229z"/>
	</g>
</g>
<g id="レイヤー_2" display="none">
	<g display="inline">
		<path fill="#4B4B4B" d="M554.1572266,538.197998c-1.1125488,0.1325073-2.2854614,0.2240601-3.5031738,0.2240601
			c-8.6837158,0.0759888-20.7653809-4.1616211-30.1992798-8.6233521c-4.7637329-2.2094116-8.8961792-4.4480591-11.8264771-6.1159058
			c-0.6468506-0.3604126-0.9780884-0.5708618-1.5177612-0.8864136v-20.8122559
			c13.7026978-2.749115,24.3114624-12.2589722,31.7346191-23.4074097
			c8.8338013-13.2545776-6.6282959-26.5052795-39.7579041-26.5052795c-33.1023865,0-48.5624695,13.2526245-39.7423096,26.5052795
			c7.9336548,11.9004822,19.4717407,21.9500122,34.51297,23.875v20.3602295
			c-3.4855957,2.0438232-9.6618347,5.4534302-16.9778748,8.6233521c-8.7149658,3.8304443-18.9612732,7.0471802-26.536438,6.9867554
			c-1.2157593,0-2.4178772-0.0915527-3.4992371-0.2240601c-3.6375732-0.5123901-6.973114,2.0281982-7.4679871,5.6638794
			c-0.494873,3.6220093,2.0437927,6.9575806,5.665802,7.4387817c1.7281494,0.239624,3.4855957,0.3740234,5.3033752,0.3740234
			c12.4265442-0.0740356,25.4375916-5.0930176,35.7910767-9.8721924c6.2502747-2.9147339,11.1932373-5.6931152,14.3495483-7.5420532
			c3.156311,1.848938,8.0993042,4.6292725,14.3495178,7.5420532c10.3827515,4.7792358,23.380127,9.7962646,35.8203735,9.8721924
			c1.7885742,0,3.5771484-0.1343994,5.2741699-0.3740234c3.6219482-0.4793091,6.1918335-3.8168335,5.6657104-7.4387817
			C561.112793,540.2398682,557.7772217,537.6836548,554.1572266,538.197998z"/>
		<path fill="#4B4B4B" d="M405.8239746,395.3317871c-12.3057556,0-22.2695618,9.9911194-22.2695618,22.2695923
			c0,12.3057251,9.9638062,22.2968445,22.2695618,22.2968445c12.2901306,0,22.2676086-9.9911194,22.2676086-22.2968445
			C428.0915833,405.3248596,418.1141357,395.3317871,405.8239746,395.3317871z"/>
		<path fill="#4B4B4B" d="M499.0873108,48.3609924c-275.4646606,0-498.760437,223.3113708-498.760437,498.7915955
			c0,166.3340454,81.4972763,313.5547485,206.6627655,404.1605835
			c37.1276398-53.281311,29.2407532-348.9268799,49.5853424-482.2929993
			c1.1417236-7.4523926,2.5542908-14.5755615,4.0876465-21.5175171
			c-89.1172638-34.6181641-65.2714691-133.862915-25.4531708-158.5055237
			c48.2916412-29.8856506,80.131485-6.4158936,97.4093781,28.2626648
			c53.941864-48.3832092,122.7904663-60.4629822,166.4703979-60.4629822
			c43.7091675,0,112.5558472,12.0797424,166.4840088,60.4629822c17.2935181-34.6785583,49.104126-58.1502686,97.395752-28.2626648
			c39.8474731,24.6407166,63.6776733,123.8854065-25.4240112,158.5055542
			c1.5333252,6.9419556,2.9147339,14.065094,4.0584717,21.5175171
			c20.3737793,133.3660889,12.4557495,429.0408936,49.598938,482.3066406
			c125.1616821-90.6195068,206.6765137-237.8421631,206.6765137-404.1742554
			C997.8789062,271.6723633,774.5519409,48.3609924,499.0873108,48.3609924z"/>
		<path fill="#4B4B4B" d="M592.3817749,395.3317871c-12.3212891,0-22.2987671,9.9911194-22.2987671,22.2695923
			c0,12.3057251,9.9794312,22.2968445,22.2987671,22.2968445c12.2745972,0,22.2676392-9.9911194,22.2676392-22.2968445
			C614.6494141,405.3248596,604.6563721,395.3317871,592.3817749,395.3317871z"/>
	</g>
</g>
<g id="レイヤー_3">
	<g id="レイヤー_10">
		<path fill-rule="evenodd" clip-rule="evenodd" fill="#4B4B4B" d="M761.6361084,456.4526367L324.9119873,20.156004
			c-24.1170959-24.0943222-63.2250366-24.0943222-87.3440399,0c-24.1247101,24.082922-24.1247101,63.154747,0,87.2566681
			l393.0606689,392.6692505l-393.0606689,392.690155c-24.1247101,24.0962524-24.1247101,63.1547852,0,87.2490845
			c24.1190033,24.0962524,63.226944,24.0962524,87.3440399,0l436.7241211-436.3137207
			C785.7608032,519.6112061,785.7608032,480.5545654,761.6361084,456.4526367z"/>
	</g>
</g>
</svg>
