<?xml version="1.0" encoding="utf-8"?>
<!-- Generator: Adobe Illustrator 23.0.1, SVG Export Plug-In . SVG Version: 6.00 Build 0)  -->
<svg version="1.1" id="レイヤー_1" xmlns="http://www.w3.org/2000/svg" xmlns:xlink="http://www.w3.org/1999/xlink" x="0px"
	 y="0px" viewBox="0 0 348 100" enable-background="new 0 0 348 100" xml:space="preserve">
<rect fill="#F75586" width="348" height="100"/>
<path fill="#FFFFFF" d="M159.2229309,82.5090408l-1.0041809-3.8118057
	c-3.5651855,1.7467194-6.158371,3.2559052-13.9206848,3.7799149c0.0200348,0.0140076-27.7665329-0.022995-27.7665329-0.022995
	l-0.0009232-11.3504944c0,0,16.5756073-22.7590027,22.0103455-47.6669197h11.418457
	c-6.64151,27.6247787-20.7308197,47.7277489-20.7308197,47.7277489l15.1084137-0.0009232
	c6.7332916-0.3863373,8.5468445-1.8884735,11.0052338-3.384697l-3.3347015-12.6579971h10.6209259l7.2153931,27.3881683H159.2229309z
	 M77.989418,27.3342972H56.1376915v-9.8413963H44.5964928v9.8413963H22.17486v11.2537956h22.4216328v43.9030647h11.5411987
	V38.5880928H77.989418V27.3342972z M28.9860287,43.2722321c0,7.7603645-0.1886749,19.5340843-8.9860287,23.7032089v12.2987518
	c17.4060364-6.5257034,19.3923225-17.0807076,19.3923225-36.0019608H28.9860287z M60.9615517,43.2722321
	c0,18.9212532,1.98629,29.4762573,19.3913994,36.0019608V66.975441c-8.7974548-4.1691246-8.9840851-15.9428444-8.9840851-23.7032089
	H60.9615517z M328,57.1539688l-8.100708-13.7499924c0,0-18.7486267-2.3016968-25.6805115-3.1510353V17.4909573h-11.3834839
	v64.9891586h11.3834839c0,0,0-26.2134056,0-29.4783173C303.9863892,54.2005997,328,57.1539688,328,57.1539688z
	 M255.0298157,31.7699738c-8.9510803,9.27742-12.5782013,16.6685104-26.2932281,16.6685104v12.1260262
	c11.0511169-1.0589638,17.6216888-3.5093727,22.9306183-7.6904678v29.6060753h11.3814392V40.7709236
	c3.4674683-4.8238564,8.9441223-8.3881187,15.2522278-10.395359V18.012928
	C264.6625977,21.1660099,260.5254822,26.0826721,255.0298157,31.7699738z M173.3321838,82.5090408
	c15.3849945-0.5139999,28.2896271-9.0957947,36.4691467-24.2132149c2.7009125,1.1029129,6.4537659,2.2686844,10.4173431,2.2686844
	h4.1301727V48.4384842h-4.1301727c-1.5590668,0-3.680069-0.4940681-5.7901306-1.3125572
	c2.6569672-8.4479942,4.0224457-17.3931408,4.0224457-29.6349697h-11.3595734
	c0.0289307,7.5666828-0.6607666,15.3109989-2.7028656,23.2030888c-1.7606964-1.3174438-10.999176-8.2324371-10.999176-8.2324371
	c-3.5173645-2.6589127-9.1387329-4.5603695-14.5885162-5.0264339v12.2179127
	c5.2411652,0.7265892,6.9429169,2.0621262,11.0950775,5.2131653c3.6560364,2.7757339,8.860199,6.6353722,9.9691467,7.4658012
	c-5.8908997,10.9972534-15.7092896,17.6227112-28.0619202,17.5948105
	C171.8031616,69.9268646,172.947998,76.121109,173.3321838,82.5090408z M119.3921967,55.5779419l-9.7316284-12.6620026H78.4504776
	v12.6620026H119.3921967z"/>
</svg>
